<?xml version="1.0" standalone="no"?>
<!DOCTYPE svg PUBLIC "-//W3C//DTD SVG 20010904//EN"
 "http://www.w3.org/TR/2001/REC-SVG-20010904/DTD/svg10.dtd">
<svg version="1.0" xmlns="http://www.w3.org/2000/svg"
 width="260.000000pt" height="260.000000pt" viewBox="0 0 260.000000 260.000000"
 preserveAspectRatio="xMidYMid meet">
<metadata>
Created by potrace 1.11, written by Peter Selinger 2001-2013
</metadata>
<g transform="translate(0.000000,260.000000) scale(0.100000,-0.100000)"
fill="#000000" stroke="none">
<path d="M759 2346 c-2 -2 -17 -6 -34 -9 -124 -21 -260 -124 -320 -243 -16
-32 -30 -63 -31 -69 -1 -5 -7 -30 -13 -55 -6 -27 -10 -193 -11 -404 l0 -360
22 20 c12 10 33 29 47 41 44 39 181 101 262 119 77 16 258 24 266 11 2 -4 9
-4 15 -1 15 10 139 11 145 1 2 -4 12 -4 21 1 21 9 123 8 139 -1 6 -4 14 -4 16
0 5 9 142 7 164 -1 7 -3 13 -2 13 2 0 9 153 8 168 -2 7 -4 12 -4 12 1 0 4 44
8 97 7 54 0 121 4 148 11 56 13 165 64 165 77 0 4 5 8 10 8 12 0 76 64 107
107 71 99 100 262 68 381 -46 174 -182 308 -355 349 -41 9 -188 13 -586 13
-292 0 -533 -2 -535 -4z"/>
<path d="M756 1192 c-2 -2 -14 -5 -27 -6 -60 -8 -173 -65 -224 -114 -96 -91
-145 -196 -150 -328 -7 -138 40 -259 137 -355 151 -150 392 -181 575 -73 108
63 201 194 223 312 9 51 12 188 10 488 l0 81 -271 -1 c-148 0 -272 -2 -273 -4z"/>
</g>
</svg>
