<?xml version="1.0" encoding="utf-8"?>
<!-- Generator: Adobe Illustrator 22.0.1, SVG Export Plug-In . SVG Version: 6.00 Build 0)  -->
<svg version="1.1" id="Free_Domestic_Shipping" xmlns="http://www.w3.org/2000/svg" xmlns:xlink="http://www.w3.org/1999/xlink"
	 x="0px" y="0px" viewBox="0 0 500 500" style="enable-background:new 0 0 500 500;" xml:space="preserve">
<style type="text/css">
	.st0{fill:#007A7A;}
	.st1{display:none;}
	.st2{display:inline;fill:#FFFFFF;}
	.st3{fill:#FFFFFF;}
</style>
<circle class="st0" cx="247.3" cy="244.7" r="94.3"/>
<g id="Shipping" class="st1">
	<path class="st2" d="M219.3,287.7c-6.8,0-12.3-5.5-12.3-12.3c0-6.8,5.5-12.3,12.3-12.3s12.3,5.5,12.3,12.3
		C231.7,282.2,226.1,287.7,219.3,287.7z M219.3,267.1c-4.5,0-8.2,3.7-8.2,8.2c0,4.5,3.7,8.2,8.2,8.2s8.2-3.7,8.2-8.2
		C227.5,270.8,223.9,267.1,219.3,267.1z"/>
	<path class="st2" d="M289.2,287.7c-6.8,0-12.3-5.5-12.3-12.3c0-6.8,5.5-12.3,12.3-12.3c6.8,0,12.3,5.5,12.3,12.3
		C301.5,282.2,296,287.7,289.2,287.7z M289.2,267.1c-4.5,0-8.2,3.7-8.2,8.2c0,4.5,3.7,8.2,8.2,8.2c4.5,0,8.2-3.7,8.2-8.2
		C297.4,270.8,293.7,267.1,289.2,267.1z"/>
	<path class="st2" d="M311.8,277.4h-12.3v-4.1h10.3v-19.9L292.2,226h-19.4v47.3h6.2v4.1h-8.2c-1.1,0-2.1-0.9-2.1-2.1V224
		c0-1.1,0.9-2.1,2.1-2.1h22.6c0.7,0,1.4,0.4,1.7,0.9l18.5,28.8c0.2,0.3,0.3,0.7,0.3,1.1v22.6C313.9,276.5,312.9,277.4,311.8,277.4z"
		/>
	<path class="st2" d="M309.7,252.8h-30.8c-1.1,0-2.1-0.9-2.1-2.1v-18.5c0-1.1,0.9-2.1,2.1-2.1h18.5v4.1H281v14.4h28.8V252.8z"/>
	<path class="st2" d="M270.7,277.4h-41.1v-4.1h39v-61.7h-74v61.7H209v4.1h-16.4c-1.1,0-2.1-0.9-2.1-2.1v-65.8c0-1.1,0.9-2.1,2.1-2.1
		h78.1c1.1,0,2.1,0.9,2.1,2.1v65.8C272.8,276.5,271.8,277.4,270.7,277.4z"/>
	<rect x="192.6" y="265.1" class="st2" width="12.3" height="4.1"/>
	<rect x="233.7" y="265.1" class="st2" width="34.9" height="4.1"/>
	<rect x="303.6" y="265.1" class="st2" width="8.2" height="4.1"/>
	<rect x="198.8" y="215.8" class="st2" width="71.9" height="4.1"/>
	<rect x="217.3" y="273.3" class="st2" width="4.1" height="4.1"/>
	<rect x="287.1" y="273.3" class="st2" width="4.1" height="4.1"/>
	<rect x="198.8" y="199.3" class="st2" width="28.8" height="4.1"/>
	<rect x="190.6" y="199.3" class="st2" width="4.1" height="4.1"/>
</g>
<g id="Shield">
	<path class="st3" d="M294.1,193.7l-42-12.4c-3.3-1-6.7-1-10,0l-42,12.4c-3.1,0.9-5.3,3.8-5.3,7v34.8c0,16.1,4.8,31.6,13.9,44.8
		c8.8,12.9,21.2,22.8,35.6,28.7c0.9,0.4,1.8,0.5,2.8,0.5c0.9,0,1.9-0.2,2.8-0.5c14.4-5.9,26.8-15.8,35.6-28.7
		c9.1-13.2,13.9-28.7,13.9-44.8v-34.8C299.3,197.5,297.2,194.6,294.1,193.7L294.1,193.7z M293.5,235.5c0,14.9-4.4,29.2-12.8,41.5
		c-8.2,12-19.6,21.2-33,26.6c-0.4,0.1-0.8,0.1-1.1,0c-13.4-5.4-24.8-14.6-33-26.6c-8.4-12.2-12.8-26.6-12.8-41.5v-34.8
		c0-0.6,0.4-1.2,1.1-1.4l42-12.4c1.1-0.3,2.2-0.5,3.3-0.5c1.1,0,2.2,0.2,3.3,0.5l42,12.4c0.6,0.2,1.1,0.8,1.1,1.4V235.5z
		 M293.5,235.5"/>
	<path class="st3" d="M279.6,206.6l-31.3-9.2c-0.8-0.2-1.7-0.2-2.5,0l-31.3,9.2c-1.9,0.5-3.2,2.3-3.2,4.2v24.6
		c0,13,3.9,25.5,11.4,36.1c5.8,8.2,13.5,15,22.3,19.6c0.6,0.3,1.3,0.5,2,0.5c0.7,0,1.4-0.2,2-0.5c8.8-4.6,16.5-11.4,22.3-19.6
		c7.4-10.6,11.4-23.1,11.4-36.1v-24.6C282.8,208.9,281.5,207.2,279.6,206.6L279.6,206.6z M276.9,235.5c0,11.8-3.6,23.1-10.3,32.7
		c-5.1,7.2-11.8,13.2-19.5,17.4c-7.7-4.2-14.4-10.2-19.5-17.4c-6.7-9.6-10.3-20.9-10.3-32.7V212l29.8-8.8l29.8,8.8V235.5z
		 M276.9,235.5"/>
</g>
</svg>
