<?xml version="1.0" encoding="iso-8859-1"?>
<!-- Generator: Adobe Illustrator 23.0.3, SVG Export Plug-In . SVG Version: 6.00 Build 0)  -->
<svg version="1.1" id="Layer_1" xmlns="http://www.w3.org/2000/svg" xmlns:xlink="http://www.w3.org/1999/xlink" x="0px" y="0px"
	 viewBox="0 0 416 305" style="enable-background:new 0 0 416 305;" xml:space="preserve">
<g>
	<path d="M305.184,87.36c0,8.797-6.407,14.148-11.082,18.074c-1.77,1.488-5.067,4.199-5.059,5.215
		c0.031,3.976-3.164,7.152-7.141,7.152h-0.062c-3.945,0-7.164-3.078-7.195-7.035c-0.067-7.797,5.625-12.469,10.199-16.305
		c3.586-3.015,5.941-5.132,5.941-7.074c0-3.926-3.195-7.121-7.125-7.121c-3.926,0-7.125,3.195-7.125,7.121
		c0,3.977-3.223,7.199-7.199,7.199c-3.977,0-7.199-3.222-7.199-7.199c0-11.867,9.656-21.523,21.523-21.523
		S305.184,75.493,305.184,87.36L305.184,87.36z M282.039,124.446c-3.977,0-7.039,3.222-7.039,7.199v0.055
		c0,3.976,3.066,7.175,7.039,7.175c3.977,0,7.203-3.254,7.203-7.23C289.242,127.668,286.02,124.446,282.039,124.446L282.039,124.446
		z M136.914,174.602c-3.976,0-7.199,3.223-7.199,7.199c0,3.977,3.223,7.199,7.199,7.199h0.598c3.98,0,7.203-3.222,7.203-7.199
		c0-3.976-3.223-7.199-7.203-7.199H136.914z M161.938,174.602c-3.977,0-7.2,3.223-7.2,7.199c0,3.977,3.223,7.199,7.2,7.199h0.597
		c3.977,0,7.199-3.222,7.199-7.199c0-3.976-3.222-7.199-7.199-7.199H161.938z M373.398,59.602v81.039
		c0,19.188-15.382,34.758-34.57,34.758h-93.375c-1.824,0-3.328-0.008-4.586-0.035c-1.32-0.028-2.801-0.039-3.379,0.027
		c-0.601,0.398-2.082,1.75-3.504,3.063c-0.562,0.519-1.203,1.089-1.89,1.718l-26.418,24.078c-2.106,1.922-5.223,2.422-7.836,1.27
		c-2.61-1.149-4.442-3.734-4.442-6.586v-76.332h-75.421c-11.25,0-20.579,9.219-20.579,20.465v81.039
		c0,11.25,9.329,20.094,20.579,20.094h104.296c1.797,0,3.477,0.824,4.805,2.035l21.524,19.844v-68.43
		c0-3.977,3.222-7.199,7.199-7.199c3.976,0,7.199,3.222,7.199,7.199v84.75c0,2.851-1.633,5.398-4.242,6.547
		c-0.934,0.414-1.871,0.578-2.852,0.578c-1.765,0-3.504-0.727-4.855-1.961l-31.567-28.965H117.977
		C98.789,258.598,83,243.297,83,224.106v-81.039c0-19.188,15.789-34.867,34.977-34.867h75.421V59.602
		c0-19.191,15.911-34.602,35.098-34.602h110.332C358.016,25,373.398,40.411,373.398,59.602L373.398,59.602z M359,59.602
		c0-11.25-8.926-20.203-20.172-20.203H228.496c-11.25,0-20.695,8.953-20.695,20.203v123.012l14.476-13.082
		c0.668-0.61,1.422-1.172,1.969-1.676c6.609-6.094,8.301-7.067,16.922-6.887c1.176,0.024,2.578,0.031,4.285,0.031h93.375
		c11.246,0,20.172-9.109,20.172-20.359V59.602z M359,59.602"/>
</g>
</svg>
