<?xml version="1.0" encoding="iso-8859-1"?>
<!-- Generator: Adobe Illustrator 23.0.3, SVG Export Plug-In . SVG Version: 6.00 Build 0)  -->
<svg version="1.1" id="Layer_1" xmlns="http://www.w3.org/2000/svg" xmlns:xlink="http://www.w3.org/1999/xlink" x="0px" y="0px"
	 viewBox="-49 141 512 512" style="enable-background:new -49 141 512 512;" xml:space="preserve" fill="#c99e1a">
<path d="M354.893,491.575c4.485,16.339,19.459,28.382,37.203,28.382s32.718-12.043,37.204-28.382h23.502
	c5.632,0,10.199-4.566,10.199-10.199v-77.261c0-2.472-0.899-4.861-2.527-6.72l-59.391-67.801c-1.937-2.21-4.733-3.479-7.672-3.479
	h-49.455v-41.872c0-5.633-4.567-10.199-10.199-10.199H123.11c-5.632,0-10.199,4.566-10.199,10.199v13.762H14.818
	c-5.632,0-10.199,4.566-10.199,10.199s4.567,10.199,10.199,10.199h98.092v132.21H53.864c-5.632,0-10.199,4.566-10.199,10.199
	s4.567,10.199,10.199,10.199h59.046v10.365c0,5.633,4.567,10.199,10.199,10.199h21.288c4.485,16.339,19.459,28.382,37.203,28.382
	s32.718-12.043,37.204-28.382h136.089V491.575z M323.555,471.177H218.803c-4.485-16.339-19.46-28.382-37.204-28.382
	s-32.717,12.043-37.203,28.382h-11.089V294.441h190.247v176.736H323.555z M181.6,499.559c-10.026,0-18.182-8.157-18.182-18.183
	c0-10.026,8.156-18.183,18.182-18.183s18.183,8.157,18.183,18.183C199.783,491.402,191.626,499.559,181.6,499.559z M392.094,499.559
	c-10.026,0-18.182-8.157-18.182-18.183c0-10.026,8.156-18.183,18.182-18.183c10.026,0,18.183,8.157,18.183,18.183
	C410.277,491.402,402.121,499.559,392.094,499.559z M442.602,471.177h-13.304c-4.485-16.339-19.46-28.382-37.204-28.382
	s-32.717,12.043-37.203,28.382h-10.939V346.513h44.831l53.818,61.437V471.177z"/>
<path d="M20.261,450.612h-5.442c-5.632,0-10.199,4.566-10.199,10.199c0,5.633,4.567,10.199,10.199,10.199h5.442
	c5.632,0,10.199-4.566,10.199-10.199C30.46,455.178,25.894,450.612,20.261,450.612z"/>
<path d="M80.699,383.476c0-5.633-4.567-10.199-10.199-10.199H-38.801c-5.632,0-10.199,4.566-10.199,10.199
	c0,5.633,4.567,10.199,10.199,10.199H70.5C76.132,393.675,80.699,389.109,80.699,383.476z"/>
</svg>
