<?xml version="1.0" encoding="iso-8859-1"?>
<!-- Generator: Adobe Illustrator 23.0.3, SVG Export Plug-In . SVG Version: 6.00 Build 0)  -->
<svg version="1.1" id="Layer_1" xmlns="http://www.w3.org/2000/svg" xmlns:xlink="http://www.w3.org/1999/xlink" x="0px" y="0px"
	 viewBox="0 0 447.027 326.141" style="enable-background:new 0 0 447.027 326.141;" xml:space="preserve" fill="#c99e1a">
<g>
	<path d="M374.09,16.805H81.93c-26.082,0-47.281,21.199-47.281,47.281v199.68c0,26.078,21.199,47.277,47.281,47.277h292.078
		c26.082,0,47.282-21.199,47.282-47.277V64.164C421.368,38.086,400.169,16.805,374.09,16.805L374.09,16.805z M399.77,263.766
		c0,14.16-11.519,25.68-25.68,25.68H81.93c-14.16,0-25.679-11.52-25.679-25.68V64.164c0-14.16,11.519-25.679,25.679-25.679h292.078
		c14.161,0,25.68,11.519,25.68,25.679v199.602H399.77z M399.77,263.766"/>
	<path d="M278.489,161.446l94.558-84.801c4.403-4,4.801-10.801,0.801-15.281c-4-4.399-10.801-4.797-15.277-0.797L228.169,177.606
		l-25.442-22.723c-0.078-0.078-0.156-0.156-0.156-0.238c-0.563-0.559-1.121-1.039-1.762-1.52L97.29,60.485
		c-4.481-4-11.282-3.602-15.282,0.879c-4,4.48-3.597,11.281,0.879,15.281l95.684,85.519l-95.281,89.2
		c-4.321,4.082-4.563,10.882-0.481,15.281c2.16,2.238,5.039,3.441,7.918,3.441c2.641,0,5.281-0.961,7.363-2.883l96.719-90.476
		l26.238,23.437c2.082,1.84,4.641,2.719,7.204,2.719c2.558,0,5.199-0.957,7.199-2.797l26.961-24.16l96.16,91.359
		c2.078,2,4.797,2.961,7.437,2.961c2.879,0,5.68-1.121,7.84-3.363c4.082-4.316,3.922-11.199-0.398-15.277L278.489,161.446z
		 M278.489,161.446"/>
</g>
</svg>
