<?xml version="1.0" encoding="iso-8859-1"?>
<!-- Generator: Adobe Illustrator 23.0.3, SVG Export Plug-In . SVG Version: 6.00 Build 0)  -->
<svg version="1.1" id="Layer_1" xmlns="http://www.w3.org/2000/svg" xmlns:xlink="http://www.w3.org/1999/xlink" x="0px" y="0px"
	 viewBox="0 0 216 108" style="enable-background:new 0 0 216 108;" xml:space="preserve">
<g>
	<path style="fill:#1D1D1B;" d="M94.516,43.27c-0.539,0.703-0.914,0.832-0.914,0.234v-1.078c0-1.547-1.254-2.797-2.801-2.797
		c-1.547,0-2.801,1.25-2.801,2.797v9.602c0,1.546,1.254,2.8,2.801,2.8h9.597c1.547,0,2.801-1.254,2.801-2.8
		c0-1.547-1.254-2.801-2.801-2.801h-1.035c-0.57,0-0.73-0.653-0.246-1.391c2.203-3.351,5.977-5.437,10.055-5.437
		c6.633,0,12.027,5.394,12.027,12.027c0,6.633-5.394,12.027-12.027,12.027c-1.766,0-3.199,1.434-3.199,3.2
		c0,1.769,1.433,3.199,3.199,3.199c10.16,0.004,18.426-8.266,18.426-18.426c0-10.16-8.266-18.426-18.426-18.426
		C103.363,36,97.957,38.762,94.516,43.27L94.516,43.27z M94.516,43.27"/>
</g>
</svg>
