<?xml version="1.0" encoding="iso-8859-1"?>
<!-- Generator: Adobe Illustrator 23.0.3, SVG Export Plug-In . SVG Version: 6.00 Build 0)  -->
<svg version="1.1" id="Capa_1" xmlns="http://www.w3.org/2000/svg" xmlns:xlink="http://www.w3.org/1999/xlink" x="0px" y="0px"
	 viewBox="-92 98 590 590" style="enable-background:new -92 98 590 590;" xml:space="preserve" fill="#c99e1a">
<path d="M207,141C65.516,141-49,255.497-49,397v236c0,11.046,8.954,20,20,20h236c141.483,0,256-114.497,256-256
	C463,255.516,348.503,141,207,141z M207,613H-9V397c0-119.377,96.607-216,216-216c119.377,0,216,96.607,216,216
	C423,516.377,326.393,613,207,613z M225.998,511.06c0,14.292-11.852,26.84-26.84,26.84s-26.491-12.549-26.491-26.84
	c0-14.64,11.852-26.84,26.491-26.84C213.799,484.22,225.998,496.42,225.998,511.06z M277.936,338.517
	c0,32.766-29.629,56.469-39.04,63.789c-19.171,14.988-19.521,25.445-19.521,43.571c0,6.623-3.485,14.291-20.565,14.291
	c-14.292,0-19.171-5.229-19.171-23.354c0-29.977,13.246-44.269,23.354-52.983c11.503-9.76,31.023-20.565,31.023-39.389
	c0-16.034-13.943-23.703-31.372-23.703c-35.554,0-27.886,26.84-46.708,26.84c-9.412,0-20.914-6.274-20.914-19.869
	c0-18.823,21.611-46.708,68.668-46.708C248.307,281.002,277.936,305.751,277.936,338.517z"/>
</svg>
