<?xml version="1.0" encoding="utf-8"?>
<!-- Generator: Adobe Illustrator 21.1.0, SVG Export Plug-In . SVG Version: 6.00 Build 0)  -->
<svg version="1.1" id="icons" xmlns="http://www.w3.org/2000/svg" xmlns:xlink="http://www.w3.org/1999/xlink" x="0px" y="0px"
	 viewBox="0 0 165 147" style="enable-background:new 0 0 165 147;" xml:space="preserve">
<style type="text/css">
	.st0{fill:#393939;}
</style>
<path class="st0" d="M58.6,57.3c-1.4,0-2.8,0-4.1,0c-2,0-3.4-1.3-3.4-3.1s1.4-3,3.5-3c2.2,0,4.4,0,6.6,0c1.8,0,2.8,0.8,3.2,2.6
	c0.2,1,0.3,2,0.5,2.9c0.1,0.3,0.5,0.6,0.8,0.7c0.3,0.1,0.6,0,0.9,0c13.8,0,27.6,0,41.4,0c2.1,0,3.4,0.9,3.6,2.7
	c0.1,0.7-0.1,1.3-0.2,2c-1,6.8-1.9,13.6-2.9,20.4c-0.3,2.2-1.4,3.1-3.8,3.1c-11.1,0-22.2,0-33.4,0c-0.5,0-1,0-1.7,0
	c0.2,1.1,0.3,2.1,0.5,3.2c0.5,0,1,0,1.5,0c10,0,20.1,0,30.1,0c2.3,0,3.7,1.4,3.5,3.4c-0.2,1.7-1.5,2.8-3.4,2.8c-4.3,0-8.6,0-12.8,0
	c-6.9,0-13.8,0-20.8,0c-2.4,0-3.5-0.9-3.9-3.3c-1.8-11-3.7-22.1-5.5-33.1C58.8,58.3,58.7,57.9,58.6,57.3z M92.9,70
	c3.6,0,7.1,0,10.6,0c0.3,0,0.7-0.4,0.7-0.7c0.3-1.8,0.5-3.6,0.8-5.5c-4.1,0-8.1,0-12.1,0C92.9,65.8,92.9,67.8,92.9,70z M103.7,73.2
	c-3.7,0-7.3,0-10.8,0c0,2.1,0,4.1,0,6.3c3.2,0,6.3,0,9.4,0c0.2,0,0.6-0.3,0.6-0.5C103.1,77,103.4,75.1,103.7,73.2z M77,69.9
	c0-2.1,0-4.2,0-6.2c-3.7,0-7.2,0-11,0c0.4,2.1,0.7,4.2,1,6.2C70.5,69.9,73.7,69.9,77,69.9z M89.7,73.1c-3.2,0-6.3,0-9.4,0
	c0,2.1,0,4.2,0,6.2c3.2,0,6.3,0,9.4,0C89.7,77.3,89.7,75.3,89.7,73.1z M89.6,63.7c-3.2,0-6.3,0-9.4,0c0,2.1,0,4.1,0,6.2
	c3.2,0,6.3,0,9.4,0C89.6,67.8,89.6,65.8,89.6,63.7z M77.1,73.2c-3.2,0-6.3,0-9.5,0c0.4,2.1,0.7,4.2,1,6.2c2.9,0,5.7,0,8.4,0
	C77.1,77.2,77.1,75.2,77.1,73.2z M72.3,107.7c-2.6,0-4.7-2.1-4.6-4.6c0-2.6,2.1-4.6,4.7-4.6c2.7,0,4.7,2,4.7,4.7
	C77,105.7,74.9,107.7,72.3,107.7z M100.7,98.4c2.6,0,4.6,2,4.7,4.6c0,2.6-2.1,4.7-4.7,4.7s-4.6-2.1-4.6-4.7S98.1,98.4,100.7,98.4z"
	/>
</svg>
