<?xml version="1.0" encoding="utf-8"?>
<!-- Generator: Adobe Illustrator 21.1.0, SVG Export Plug-In . SVG Version: 6.00 Build 0)  -->
<svg version="1.1" id="icons" xmlns="http://www.w3.org/2000/svg" xmlns:xlink="http://www.w3.org/1999/xlink" x="0px" y="0px"
	 viewBox="0 0 165 147" style="enable-background:new 0 0 165 147;" xml:space="preserve">
<style type="text/css">
	.st0{fill:#393939;}
</style>
<path id="user" class="st0" d="M109.4,98c-1.8,0-3.4,0-5.2,0c-0.3-7.1-3.1-12.9-8.9-17.1c-4.1-3-8.8-4.2-13.8-3.7
	C71.4,78,62.6,86.3,62.3,97.9c-1.7,0-3.4,0-5.2,0c0.2-6.8,2.4-12.7,7.1-17.7c4.6-4.9,10.3-7.6,17-8.4c-4.3-0.8-7.9-2.8-10.5-6.3
	s-3.6-7.5-2.9-11.8C69,45.9,76,40.1,84.1,40.4C91.9,40.7,98.3,47.1,99,55c0.6,7.5-4.6,15.3-13.6,16.8c8.8,1,15.7,5.2,20.4,12.7
	C108.2,88.6,109.5,93,109.4,98z M83.3,45.7c-5.8,0-10.4,4.6-10.5,10.4c0,5.8,4.6,10.5,10.4,10.5s10.6-4.7,10.5-10.5
	C93.8,50.3,89.1,45.7,83.3,45.7z"/>
</svg>
