<?xml version="1.0" encoding="utf-8"?>
<!-- Generator: Adobe Illustrator 19.0.1, SVG Export Plug-In . SVG Version: 6.00 Build 0)  -->
<svg version="1.1" id="Layer_1" xmlns="http://www.w3.org/2000/svg" xmlns:xlink="http://www.w3.org/1999/xlink" x="0px" y="0px"
	 viewBox="1303.7 115.8 2787.3 474" style="enable-background:new 1303.7 115.8 2787.3 474;" xml:space="preserve">
<style type="text/css">
	.st0{fill:#047E8C;}
</style>
<g id="PRO">
	<path class="st0" d="M3448,386.5h-197.9v69.8h-36.5V277.7H3448c12.7,0,21.6,5.1,26.7,15.3c2.2,4.4,3.3,9.3,3.3,14.7v48.5
		c0,12.7-5,21.6-15,26.7C3458.5,385.3,3453.5,386.5,3448,386.5 M3436.6,350.5c2.9,0,4.6-1.4,5.2-4.1c0.2-0.6,0.3-1,0.3-1.4v-26.2
		c0-2.9-1.4-4.7-4.1-5.4c-0.5-0.2-1-0.3-1.4-0.3h-185.9v37.6l172.6-0.3L3436.6,350.5L3436.6,350.5z"/>
	<path class="st0" d="M4051.1,426c0,12.5-5,21.4-15,26.7c-4.4,2.4-9.4,3.5-15,3.5H3815c-12.3,0-21.3-4.8-27-14.4
		c-2.7-4.7-4.1-10-4.1-15.8V307.7c0-12,5-20.7,15-26.2c4.7-2.5,10.1-3.8,16.1-3.8h206.1c12.7,0,21.6,5.1,26.7,15.3
		c2.2,4.4,3.3,9.3,3.3,14.7V426z M4014.6,415.1v-96.2c0-2.9-1.4-4.6-4.1-5.2c-0.4-0.2-0.7-0.3-1.1-0.3h-183.5
		c-2.9,0-4.6,1.4-5.2,4.1c-0.2,0.6-0.3,1-0.3,1.4v96.2c0,2.9,1.8,4.6,5.4,5.2h183.5C4012.3,420.3,4014.1,418.6,4014.6,415.1"/>
	<path class="st0" d="M3652.6,386.5h-117v69.8h-36.5V277.7h234.4c12.7,0,21.6,5.1,26.7,15.3c2.2,4.4,3.3,9.3,3.3,14.7v48.5
		c0,12.7-5,21.6-15,26.7c-4.5,2.4-9.5,3.5-15,3.5H3699l69.5,69.8h-46.3L3652.6,386.5z M3722.1,350.5c2.9,0,4.6-1.4,5.2-4.1
		c0.2-0.6,0.3-1,0.3-1.4v-26.2c0-2.9-1.4-4.7-4.1-5.4c-0.5-0.2-1-0.3-1.4-0.3h-185.9v37.4H3722.1z"/>
</g>
<g>
	<path class="st0" d="M3177.2,347l-191-191c-5.6-5.6-14.8-5.6-20.4,0l-191.6,191.6c-5.6,5.6-5.6,14.8,0,20.4l191,191
		c5.6,5.6,14.8,5.6,20.4,0l191.6-191.6C3182.8,361.7,3182.8,352.6,3177.2,347z M3116.7,361.6L2980,498.3c-2.4,2.4-6.2,2.4-8.6,0
		L2835.1,362c-2.4-2.4-2.4-6.2,0-8.6l136.7-136.7c2.4-2.4,6.2-2.4,8.6,0L3116.7,353C3119.1,355.3,3119.1,359.2,3116.7,361.6z"/>
	<path id="main_center_diamond" class="st0" d="M2973.7,421.6l-62.1-62.1c-1.1-1.1-1.1-2.8,0-3.9l62.3-62.3c1.1-1.1,2.8-1.1,3.9,0
		l62.1,62.1c1.1,1.1,1.1,2.8,0,3.9l-62.3,62.3C2976.5,422.7,2974.8,422.7,2973.7,421.6z"/>
</g>
<g id="POLAR">
	<path class="st0" d="M1579.5,386.4h-197.9v69.8H1345V277.7h234.4c12.7,0,21.6,5.1,26.7,15.3c2.2,4.4,3.3,9.3,3.3,14.7v48.5
		c0,12.7-5,21.6-15,26.7C1589.9,385.3,1584.9,386.4,1579.5,386.4 M1568,350.5c2.9,0,4.6-1.4,5.2-4.1c0.2-0.5,0.3-1,0.3-1.4v-26.2
		c0-2.9-1.4-4.7-4.1-5.5c-0.5-0.2-1-0.3-1.4-0.3h-185.9v37.6l172.6-0.3h13.3V350.5z"/>
	<path class="st0" d="M1892.9,426c0,12.5-5,21.4-15,26.7c-4.4,2.4-9.4,3.5-15,3.5h-206.1c-12.4,0-21.4-4.8-27-14.4
		c-2.7-4.7-4.1-10-4.1-15.8V307.7c0-12,5-20.7,15-26.2c4.7-2.5,10.1-3.8,16.1-3.8h206.1c12.7,0,21.6,5.1,26.7,15.3
		c2.2,4.4,3.3,9.3,3.3,14.7V426z M1856.4,415.1v-96.2c0-2.9-1.4-4.6-4.1-5.2c-0.4-0.2-0.7-0.3-1.1-0.3h-183.5
		c-2.9,0-4.6,1.4-5.2,4.1c-0.2,0.5-0.3,1-0.3,1.4v96.2c0,2.9,1.8,4.6,5.5,5.2h183.5C1854.1,420.2,1855.8,418.5,1856.4,415.1"/>
	<polygon class="st0" points="1909.2,277.7 1945.7,277.7 1945.7,420.2 2173.6,420.2 2173.6,456.2 1909.2,456.2 	"/>
	<path class="st0" d="M2427,277.7c12.7,0,21.6,5.1,26.7,15.3c2.2,4.4,3.3,9.3,3.3,14.7v148.6h-36.8v-69.8h-193v69.8h-37.4V307.7
		c0-12.5,5.1-21.4,15.3-26.4c4.4-2.4,9.4-3.6,15-3.6H2427z M2415,313.4h-182.6c-2.9,0-4.6,1.4-5.2,4.1c-0.2,0.5-0.3,1-0.3,1.4
		c0,1.8,0.1,12.5,0.3,31.9h193v-31.6c0-2.9-1.4-4.7-4.1-5.4C2415.8,313.5,2415.4,313.4,2415,313.4"/>
	<path class="st0" d="M2626.8,386.4h-117v69.8h-36.5V277.7h234.4c12.7,0,21.6,5.1,26.7,15.3c2.2,4.4,3.3,9.3,3.3,14.7v48.5
		c0,12.7-5,21.6-15,26.7c-4.5,2.4-9.5,3.5-15,3.5h-34.6l69.5,69.8h-46.3L2626.8,386.4z M2696.3,350.5c2.9,0,4.6-1.4,5.2-4.1
		c0.2-0.5,0.3-1,0.3-1.4v-26.2c0-2.9-1.4-4.7-4.1-5.5c-0.5-0.2-1-0.3-1.4-0.3h-185.9v37.4h185.9V350.5z"/>
</g>
</svg>
