<?xml version="1.0" encoding="utf-8"?>
<!-- Generator: Adobe Illustrator 20.1.0, SVG Export Plug-In . SVG Version: 6.00 Build 0)  -->
<svg version="1.1" id="PolarPro_x5F_Web_x5F_Logo" xmlns="http://www.w3.org/2000/svg" xmlns:xlink="http://www.w3.org/1999/xlink"
	 x="0px" y="0px" viewBox="0 0 600 277" style="enable-background:new 0 0 600 277;" xml:space="preserve">
<style type="text/css">
	.st0{fill:#037E8C;}
</style>
<g>
	<path class="st0" d="M242.8,69.7c0,31.3-25.3,56.6-56.6,56.6H72.9c-22,0-42,8.8-56.6,23.1V69.7c0-31.3,25.4-56.6,56.6-56.6h113.2
		C217.4,13.1,242.8,38.5,242.8,69.7z"/>
	<path class="st0" d="M72.9,150.8h56.6v56.6c0,31.3-25.3,56.6-56.6,56.6s-56.6-25.3-56.6-56.6S41.7,150.8,72.9,150.8z"/>
	<path class="st0" d="M576.6,157.3c5.8,5.4,8.6,11.8,8.6,19.4c0,7.5-2.9,14-8.6,19.5c-5.8,5.4-12.7,8-20.8,8c-8.1,0-15.1-2.7-20.9-8
		c-5.7-5.5-8.5-11.9-8.5-19.5c0-7.5,2.9-14,8.5-19.4c5.8-5.5,12.8-8.1,20.9-8.1C563.9,149.2,570.8,151.9,576.6,157.3z M563.3,183.8
		c2.2-2,3.2-4.3,3.2-7.1s-1-5.1-3.2-7.1c-2.2-2-4.6-3-7.5-3c-5.9,0-10.7,4.6-10.7,10.1c0,5.5,4.8,10.1,10.7,10.1
		C558.6,186.8,561.1,185.8,563.3,183.8z"/>
	<path class="st0" d="M154,222.5v-71.8h18.6v5.5c2-4,6.8-6.1,14.3-6.1c7.3,0,13.5,2.6,18.3,7.8c4.8,5.1,7.3,11.4,7.3,18.7
		c0,7.4-2.5,13.7-7.3,18.8c-4.8,5.1-11,7.7-18.3,7.7c-7.5,0-12.4-2.1-14.3-6.1v25.3H154z M182.9,186.6c5.9,0,10.8-4.4,10.8-9.9
		c0-5.4-4.9-9.9-10.8-9.9c-5.9,0-10.8,4.5-10.8,9.9C172.1,182.2,177,186.6,182.9,186.6z"/>
	<path class="st0" d="M268.8,157.3c5.8,5.4,8.6,11.8,8.6,19.4c0,7.5-2.9,14-8.6,19.5c-5.8,5.4-12.7,8-20.8,8s-15.1-2.7-20.9-8
		c-5.7-5.5-8.5-11.9-8.5-19.5c0-7.5,2.9-14,8.5-19.4c5.8-5.5,12.8-8.1,20.9-8.1S263,151.9,268.8,157.3z M255.5,183.8
		c2.2-2,3.2-4.3,3.2-7.1s-1-5.1-3.2-7.1c-2.2-2-4.6-3-7.5-3c-5.9,0-10.7,4.6-10.7,10.1c0,5.5,4.8,10.1,10.7,10.1
		C250.9,186.8,253.4,185.8,255.5,183.8z"/>
	<path class="st0" d="M283.4,202.6v-71.8h19v71.8H283.4z"/>
	<path class="st0" d="M315.8,158c4.8-5.3,11-7.8,18.3-7.8c7.5,0,12.3,2.1,14.3,6.1v-5.5h18.6v51.9h-18.6v-5.5
		c-2.1,4-6.8,6.1-14.3,6.1c-7.3,0-13.5-2.6-18.3-7.7c-4.8-5.1-7.3-11.4-7.3-18.8C308.5,169.4,310.9,163.1,315.8,158z M338.1,186.6
		c5.9,0,10.8-4.4,10.8-9.9c0-5.4-4.9-9.9-10.8-9.9c-5.9,0-10.8,4.5-10.8,9.9C327.3,182.2,332.3,186.6,338.1,186.6z"/>
	<path class="st0" d="M374.1,202.6v-51.9h19v6.4c3-5,7.9-7.6,14.6-7.6c1.1,0,3.9,0.3,4.4,0.3v17.3c-1.8-0.3-3.4-0.5-5.1-0.5
		c-9.1,0-13.9,4.7-13.9,13v23.1H374.1z"/>
	<path class="st0" d="M419.3,222.5v-71.8H438v5.5c2-4,6.8-6.1,14.3-6.1c7.3,0,13.5,2.6,18.3,7.8c4.8,5.1,7.3,11.4,7.3,18.7
		c0,7.4-2.5,13.7-7.3,18.8c-4.8,5.1-11,7.7-18.3,7.7c-7.5,0-12.4-2.1-14.3-6.1v25.3H419.3z M448.3,186.6c5.9,0,10.8-4.4,10.8-9.9
		c0-5.4-4.9-9.9-10.8-9.9c-5.9,0-10.8,4.5-10.8,9.9C437.4,182.2,442.4,186.6,448.3,186.6z"/>
	<path class="st0" d="M483.9,202.6v-51.9h19v6.4c3-5,7.9-7.6,14.6-7.6c1.1,0,3.9,0.3,4.4,0.3v17.3c-1.8-0.3-3.4-0.5-5.1-0.5
		c-9.1,0-13.9,4.7-13.9,13v23.1H483.9z"/>
</g>
<g>
	<path class="st0" d="M582.6,200.5L582.6,200.5c0-1.8,1.5-3.4,3.4-3.4s3.3,1.5,3.3,3.3v0c0,1.8-1.5,3.3-3.4,3.3
		C584.1,203.8,582.6,202.3,582.6,200.5z M589,200.5L589,200.5c0-1.7-1.3-3.1-3-3.1c-1.7,0-3.1,1.4-3.1,3.1v0c0,1.7,1.3,3,3,3
		C587.7,203.5,589,202.1,589,200.5z M584.7,198.7h1.5c0.4,0,0.8,0.1,1,0.4c0.2,0.2,0.3,0.4,0.3,0.7v0c0,0.6-0.4,0.9-0.9,1l1.1,1.4
		H587l-1-1.3h-0.9v1.3h-0.5V198.7z M586.1,200.3c0.5,0,0.8-0.2,0.8-0.6v0c0-0.4-0.3-0.6-0.8-0.6h-1v1.2H586.1z"/>
</g>
</svg>
