<?xml version="1.0" encoding="iso-8859-1"?>
<!-- Generator: Adobe Illustrator 23.0.3, SVG Export Plug-In . SVG Version: 6.00 Build 0)  -->
<svg version="1.1" id="Capa_1" xmlns="http://www.w3.org/2000/svg" xmlns:xlink="http://www.w3.org/1999/xlink" x="0px" y="0px"
	 viewBox="-75 115 566 566" style="enable-background:new -75 115 566 566;" xml:space="preserve">
<path d="M207,141c-99.252,0-180,80.748-180,180c0,33.534,9.289,66.26,26.869,94.652l142.885,230.257
	c2.737,4.411,7.559,7.091,12.745,7.091c0.04,0,0.079,0,0.119,0c5.231-0.041,10.063-2.804,12.75-7.292L361.611,413.22
	C378.221,385.428,387,353.539,387,321C387,221.748,306.252,141,207,141z M335.866,397.818L209.272,609.186L79.367,399.846
	C64.734,376.214,56.8,348.95,56.8,321c0-82.71,67.49-150.2,150.2-150.2S357.1,238.29,357.1,321
	C357.1,348.121,349.689,374.688,335.866,397.818z"/>
<path d="M207,231c-49.626,0-90,40.374-90,90c0,49.309,39.717,90,90,90c50.903,0,90-41.233,90-90C297,271.374,256.626,231,207,231z
	 M207,381.2c-33.257,0-60.2-27.033-60.2-60.2c0-33.084,27.116-60.2,60.2-60.2s60.1,27.116,60.1,60.2
	C267.1,353.683,240.784,381.2,207,381.2z"/>
</svg>
