<?xml version="1.0" encoding="iso-8859-1"?>
<!-- Generator: Adobe Illustrator 23.0.3, SVG Export Plug-In . SVG Version: 6.00 Build 0)  -->
<svg version="1.1" id="Layer_1" xmlns="http://www.w3.org/2000/svg" xmlns:xlink="http://www.w3.org/1999/xlink" x="0px" y="0px"
	 viewBox="0 0 424 417" style="enable-background:new 0 0 424 417;" xml:space="preserve" fill="#c99e1a">
<g>
	<g>
		<path d="M386.801,108.359c0-1.437-0.321-2.879-0.961-4.238c-1.281-2.723-3.762-4.562-6.481-5.121L216.398,19.961
			c-2.636-1.281-5.757-1.281-8.398,0L43.441,99.719c-3.203,1.519-5.281,4.722-5.441,8.32v200.563c0,3.679,2.078,7.039,5.441,8.636
			L208,397c0.078,0,0.078,0,0.16,0.078c0.238,0.082,0.481,0.16,0.719,0.32c0.082,0,0.16,0.082,0.32,0.082l0.723,0.239
			c0.078,0,0.156,0.082,0.238,0.082c0.238,0.078,0.559,0.078,0.801,0.16h0.238c0.321,0,0.723,0.078,1.039,0.078
			c0.321,0,0.723,0,1.043-0.078h0.239c0.242,0,0.558-0.082,0.8-0.16c0.078,0,0.16-0.082,0.239-0.082l0.722-0.239
			c0.078,0,0.16-0.082,0.321-0.082c0.238-0.078,0.476-0.16,0.718-0.32c0.078,0,0.078,0,0.16-0.078l165.04-80
			c3.281-1.602,5.441-4.961,5.441-8.641V108.602C386.801,108.52,386.801,108.441,386.801,108.359L386.801,108.359z M212.16,39.238
			l142.719,69.203l-52.559,25.52L159.602,64.762L212.16,39.238z M212.16,177.641l-142.719-69.2l68.161-33.043l142.718,69.204
			L212.16,177.641z M57.199,123.879l145.36,70.48V373l-145.36-70.48V123.879z M221.762,373V194.359L290,161.238v46.723
			c0,5.277,4.32,9.598,9.602,9.598c5.277,0,9.597-4.321,9.597-9.598v-56.082l58.403-28.32v178.64L221.762,373z M221.762,373"/>
	</g>
</g>
</svg>
