<?xml version="1.0" encoding="iso-8859-1"?>
<!-- Generator: Adobe Illustrator 23.0.3, SVG Export Plug-In . SVG Version: 6.00 Build 0)  -->
<svg version="1.1" id="Layer_1" xmlns="http://www.w3.org/2000/svg" xmlns:xlink="http://www.w3.org/1999/xlink" x="0px" y="0px"
	 viewBox="0 0 425.489 437.754" style="enable-background:new 0 0 425.489 437.754;" xml:space="preserve" fill="#c99e1a">
<g>
	<g>
		<path d="M326.778,269.805c-7.762-8.078-17.121-12.398-27.039-12.398c-9.84,0-19.281,4.238-27.359,12.32l-25.282,25.199
			c-2.082-1.121-4.16-2.16-6.16-3.199c-2.879-1.441-5.601-2.801-7.922-4.242c-23.679-15.039-45.199-34.641-65.839-60
			c-10-12.641-16.719-23.282-21.598-34.078c6.558-6,12.64-12.243,18.558-18.243c2.243-2.238,4.481-4.558,6.723-6.8
			c16.797-16.797,16.797-38.559,0-55.36l-21.844-21.84c-2.476-2.48-5.039-5.039-7.437-7.597c-4.801-4.961-9.84-10.082-15.039-14.883
			c-7.762-7.68-17.043-11.758-26.801-11.758c-9.762,0-19.199,4.078-27.199,11.758l-0.16,0.16L45.177,96.286
			c-10.239,10.238-16.079,22.718-17.36,37.199c-1.918,23.359,4.961,45.121,10.242,59.359c12.957,34.961,32.321,67.359,61.2,102.082
			c35.039,41.84,77.199,74.879,125.359,98.16c18.398,8.719,42.961,19.039,70.398,20.797c1.684,0.082,3.442,0.16,5.043,0.16
			c18.481,0,34-6.636,46.16-19.84c0.079-0.16,0.239-0.238,0.321-0.398c4.16-5.039,8.957-9.602,14-14.48
			c3.437-3.282,6.957-6.719,10.398-10.321c7.922-8.238,12.078-17.84,12.078-27.679c0-9.918-4.238-19.442-12.316-27.442
			L326.778,269.805z M355.419,354.043C355.337,354.043,355.337,354.125,355.419,354.043c-3.121,3.364-6.321,6.403-9.762,9.762
			c-5.199,4.961-10.48,10.16-15.438,16c-8.082,8.641-17.601,12.719-30.082,12.719c-1.199,0-2.48,0-3.679-0.078
			c-23.758-1.52-45.84-10.801-62.399-18.719c-45.281-21.922-85.043-53.043-118.082-92.481
			C88.7,248.364,70.458,217.965,58.38,185.325c-7.442-19.918-10.161-35.442-8.961-50.079c0.8-9.363,4.398-17.121,11.039-23.761
			l27.281-27.282c3.918-3.679,8.078-5.679,12.16-5.679c5.039,0,9.117,3.043,11.68,5.601l0.238,0.239
			c4.883,4.562,9.52,9.281,14.402,14.32c2.481,2.562,5.04,5.121,7.598,7.762l21.84,21.84c8.48,8.48,8.48,16.32,0,24.8
			c-2.32,2.321-4.559,4.641-6.879,6.879c-6.719,6.879-13.121,13.281-20.078,19.52c-0.16,0.16-0.32,0.242-0.402,0.398
			c-6.879,6.883-5.598,13.602-4.161,18.16l0.243,0.723c5.679,13.758,13.679,26.719,25.839,42.16l0.079,0.078
			c22.082,27.199,45.359,48.403,71.039,64.641c3.281,2.082,6.64,3.762,9.84,5.359c2.882,1.442,5.601,2.801,7.921,4.242
			c0.321,0.161,0.641,0.399,0.961,0.559c2.719,1.359,5.278,2,7.918,2c6.641,0,10.801-4.16,12.16-5.519l27.36-27.36
			c2.722-2.723,7.043-6,12.082-6c4.961,0,9.039,3.117,11.519,5.84l44.239,44.238C363.579,337.164,363.579,345.567,355.419,354.043
			L355.419,354.043z M355.419,354.043"/>
		<path d="M232.059,125.164c20.957,3.52,40,13.442,55.2,28.641c15.199,15.199,25.039,34.238,28.64,55.199
			c0.879,5.282,5.438,8.961,10.641,8.961c0.637,0,1.199-0.082,1.84-0.16c5.918-0.961,9.839-6.559,8.879-12.48
			c-4.321-25.36-16.321-48.481-34.641-66.801c-18.32-18.321-41.441-30.321-66.801-34.641c-5.918-0.957-11.437,2.961-12.48,8.801
			C222.298,118.524,226.137,124.203,232.059,125.164L232.059,125.164z M232.059,125.164"/>
		<path d="M405.817,202.203c-7.117-41.757-26.801-79.757-57.039-110c-30.238-30.238-68.238-49.917-110-57.039
			c-5.84-1.039-11.359,2.961-12.398,8.801c-0.961,5.918,2.957,11.442,8.879,12.481c37.281,6.32,71.281,24,98.32,50.961
			c27.039,27.039,44.64,61.039,50.961,98.32c0.879,5.277,5.437,8.957,10.637,8.957c0.64,0,1.203-0.078,1.839-0.16
			C402.86,213.645,406.86,208.043,405.817,202.203L405.817,202.203z M405.817,202.203"/>
	</g>
</g>
</svg>
