<?xml version="1.0" encoding="iso-8859-1"?>
<!-- Generator: Adobe Illustrator 23.0.3, SVG Export Plug-In . SVG Version: 6.00 Build 0)  -->
<svg version="1.1" id="Layer_1" xmlns="http://www.w3.org/2000/svg" xmlns:xlink="http://www.w3.org/1999/xlink" x="0px" y="0px"
	 viewBox="0 0 356 296" style="enable-background:new 0 0 356 296;" xml:space="preserve" fill="#c99e1a">
<g>
	<g>
		<path d="M328.695,269.667c0.481-3.23,10.676-80.937-35.023-134.41c-28.07-32.855-71.391-50.844-127.328-52.625l-0.297-54.023
			c0-3.715-2.149-7.09-5.496-8.688c-3.36-1.57-7.332-1.117-10.211,1.231L25.543,123.573c-2.234,1.829-3.535,4.563-3.543,7.45
			c-0.008,2.886,1.281,5.621,3.512,7.449L150.32,241.866c2.868,2.375,6.883,2.868,10.211,1.27c3.379-1.59,5.516-4.984,5.516-8.699
			l0.297-55.235c134.828-0.097,144.414,86.289,144.738,89.86c0.414,4.851,3.484,8.633,8.356,8.789
			c0.113,0.008,0.222,0.008,0.328,0.008C324.527,277.859,327.984,274.386,328.695,269.667L328.695,269.667z M149.637,162.609
			c-1.809,1.808-2.828,4.253-2.828,6.812v44.641L46.82,131.081l99.989-82.211v43.242c0,5.321,4.3,9.622,9.621,9.622
			c54.761,0,96.601,15.863,122.566,45.968c19.527,22.653,28.508,50.383,31.578,73.395c-21.019-28.719-57.824-61.242-154.133-61.297
			h-0.019C153.879,159.8,151.438,160.808,149.637,162.609L149.637,162.609z M149.637,162.609"/>
	</g>
</g>
</svg>
