<?xml version="1.0" standalone="no"?>
<!DOCTYPE svg PUBLIC "-//W3C//DTD SVG 20010904//EN"
 "http://www.w3.org/TR/2001/REC-SVG-20010904/DTD/svg10.dtd">
<svg version="1.0" xmlns="http://www.w3.org/2000/svg"
 width="260.000000pt" height="260.000000pt" viewBox="0 0 260.000000 260.000000"
 preserveAspectRatio="xMidYMid meet">
<metadata>
Created by potrace 1.11, written by Peter Selinger 2001-2013
</metadata>
<g transform="translate(0.000000,260.000000) scale(0.100000,-0.100000)"
fill="#000000" stroke="none">
<path d="M0 1300 l0 -1300 1300 0 1300 0 0 1300 0 1300 -1300 0 -1300 0 0
-1300z m1789 801 c165 -51 272 -211 258 -383 -15 -172 -137 -305 -311 -337
-37 -7 -218 -11 -476 -11 -354 0 -425 -2 -471 -16 -69 -21 -133 -53 -184 -94
l-40 -32 -3 286 c-2 268 -1 290 19 348 39 117 118 197 235 237 56 19 82 20
486 21 390 0 431 -2 487 -19z m-479 -1078 c0 -277 -23 -358 -125 -452 -162
-149 -421 -126 -549 48 -151 206 -61 490 182 577 26 9 104 13 265 14 l227 0 0
-187z"/>
</g>
</svg>
