<?xml version="1.0" encoding="iso-8859-1"?>
<!-- Generator: Adobe Illustrator 23.0.3, SVG Export Plug-In . SVG Version: 6.00 Build 0)  -->
<svg version="1.1" id="Layer_1" xmlns="http://www.w3.org/2000/svg" xmlns:xlink="http://www.w3.org/1999/xlink" x="0px" y="0px"
	 viewBox="0 0 434 432" style="enable-background:new 0 0 434 432;" xml:space="preserve" fill="#c99e1a">
<g>
	<path d="M336.148,201.164H301.98v17.117c0,1.426-1.156,2.586-2.582,2.586h-10.91c-1.426,0-2.586-1.156-2.586-2.586v-17.117h-34.164
		c-5.707,0-10.336,4.629-10.336,10.336v84.406c0,5.711,4.629,10.336,10.336,10.336h84.41c5.707,0,10.336-4.625,10.336-10.336V211.5
		C346.48,205.793,341.855,201.164,336.148,201.164L336.148,201.164z M336.148,201.164"/>
	<path d="M182.262,201.164h-34.168v17.117c0,1.426-1.156,2.586-2.582,2.586h-10.91c-1.426,0-2.582-1.156-2.582-2.586v-17.117H97.852
		c-5.707,0-10.336,4.629-10.336,10.336v84.406c0,5.711,4.629,10.336,10.336,10.336h84.41c5.707,0,10.336-4.625,10.336-10.336V211.5
		C192.598,205.793,187.969,201.164,182.262,201.164L182.262,201.164z M182.262,201.164"/>
	<path d="M336.148,22H301.98v17.117c0,1.426-1.156,2.586-2.582,2.586h-10.91c-1.426,0-2.586-1.156-2.586-2.586V22h-34.164
		c-5.707,0-10.336,4.629-10.336,10.336v84.406c0,5.711,4.629,10.336,10.336,10.336h84.41c5.707,0,10.336-4.625,10.336-10.336V32.336
		C346.48,26.629,341.855,22,336.148,22L336.148,22z M336.148,22"/>
	<g>
		<path d="M182.262,22h-34.168v17.117c0,1.426-1.156,2.586-2.582,2.586h-10.91c-1.426,0-2.582-1.156-2.582-2.586V22H97.852
			c-5.707,0-10.336,4.629-10.336,10.336v84.406c0,5.711,4.629,10.336,10.336,10.336h84.41c5.707,0,10.336-4.625,10.336-10.336
			V32.336C192.598,26.629,187.969,22,182.262,22L182.262,22z M182.262,22"/>
		<path d="M409.555,22H379.41c-1.906,0-3.445,1.543-3.445,3.445v125.727H58.035V25.445c0-1.902-1.543-3.445-3.445-3.445H24.445
			C22.543,22,21,23.543,21,25.445v378.477c0,1.902,1.543,3.445,3.445,3.445H54.59c1.902,0,3.445-1.543,3.445-3.445v-47.758h317.93
			v47.758c0,1.902,1.543,3.445,3.445,3.445h30.145c1.902,0,3.445-1.543,3.445-3.445V25.445C413,23.543,411.457,22,409.555,22
			L409.555,22z M39.52,350.422c-3.965,0-7.18-3.215-7.18-7.18c0-3.965,3.215-7.176,7.18-7.176c3.96,0,7.175,3.211,7.175,7.176
			C46.695,347.207,43.484,350.422,39.52,350.422L39.52,350.422z M39.52,171.269c-3.965,0-7.18-3.211-7.18-7.175
			c0-3.965,3.215-7.18,7.18-7.18c3.96,0,7.175,3.215,7.175,7.18C46.695,168.058,43.484,171.269,39.52,171.269L39.52,171.269z
			 M375.965,330.324H58.035V177.012h317.93V330.324z M394.48,350.422c-3.96,0-7.175-3.215-7.175-7.18
			c0-3.965,3.215-7.176,7.175-7.176c3.965,0,7.18,3.211,7.18,7.176C401.66,347.207,398.445,350.422,394.48,350.422L394.48,350.422z
			 M394.48,171.269c-3.96,0-7.175-3.211-7.175-7.175c0-3.965,3.215-7.18,7.175-7.18c3.965,0,7.18,3.215,7.18,7.18
			C401.66,168.058,398.445,171.269,394.48,171.269L394.48,171.269z M394.48,171.269"/>
	</g>
</g>
</svg>
