<?xml version="1.0" encoding="iso-8859-1"?>
<!-- Generator: Adobe Illustrator 23.0.3, SVG Export Plug-In . SVG Version: 6.00 Build 0)  -->
<svg version="1.1" id="Capa_1" xmlns="http://www.w3.org/2000/svg" xmlns:xlink="http://www.w3.org/1999/xlink" x="0px" y="0px"
	 viewBox="-67 129 542 542" style="enable-background:new -67 129 542 542;" xml:space="preserve" fill="#c99e1a">
<path d="M371.498,206.192L371.498,206.192c-48.502-8.692-93.168-35.18-115.476-50.195C241.446,146.186,224.496,141,207.001,141
	s-34.447,5.186-49.022,14.996c-22.308,15.015-66.974,41.503-115.476,50.195c-28.726,5.148-49.576,30.002-49.576,59.097v120.71
	c0,39.877,11.157,78.749,33.159,115.539c17.214,28.781,41.064,56.288,70.888,81.757c50.147,42.825,99.803,65.156,101.892,66.086
	l8.134,3.619l8.134-3.619c2.089-0.929,51.745-23.261,101.892-66.086c29.823-25.469,53.675-52.976,70.888-81.757
	c22.004-36.789,33.159-75.662,33.159-115.539V265.29C421.074,236.194,400.224,211.34,371.498,206.192z M381.061,386
	c0,59.45-30.033,115.375-89.267,166.224c-34.432,29.558-69.39,48.824-84.791,56.643C171.6,590.879,32.94,512.328,32.94,386V265.29
	c0-9.695,6.99-17.985,16.621-19.711c55.718-9.985,105.843-39.616,130.761-56.387c7.947-5.35,17.172-8.178,26.678-8.178
	s18.731,2.828,26.678,8.177c24.919,16.773,75.043,46.402,130.761,56.387l0,0c9.63,1.726,16.621,10.015,16.621,19.711V386z
	 M302.153,297.061l29.769,26.738L187.775,484.294l-94.604-90.052l27.589-28.983l64.769,61.653L302.153,297.061z"/>
</svg>
